# xmcd
#
# Track frame offsets:
#	150
#	25312
#	47579
#	80803
#	112021
#	139615
#	168184
#	197421
#	236085
#	261538
#	289235
#
# Disc length: 4241 seconds
#
# Revision: 1
# Processed by: cddbd v1.5.2PL0 Copyright (c) Steve Scherf et al.
# Submitted via: audiograbber 1.83.01
#
DISCID=9e108f0b
DTITLE=Andy Robson and Urban Fox - Rooted in Rootsmusic
DYEAR=2017
DGENRE=Blues
TTITLE0=Whole Lotta Love
TTITLE1=Wall Of Ignorance
TTITLE2=Get Ride Of The Fear
TTITLE3=Friend Of Chaos
TTITLE4=Can`t Keep A Good Man Down
TTITLE5=Devil`s Pie (Live)
TTITLE6=Old Friend (Live)
TTITLE7=Crying Time (Live)
TTITLE8=You Don`t Love Me (Live)
TTITLE9=Whole Lotta Love (Live)
TTITLE10=Devil`s Pie (Altern. Vers. Live)
EXTD=
EXTT0=
EXTT1=
EXTT2=
EXTT3=
EXTT4=
EXTT5=
EXTT6=
EXTT7=
EXTT8=
EXTT9=
EXTT10=
PLAYORDER=
